<svg width="128" height="128" viewBox="0 0 128 128" fill="none" xmlns="http://www.w3.org/2000/svg">
<circle cx="64" cy="64" r="64" fill="white"/>
<rect x="0.00310153" y="0.677467" width="85.8524" height="85.7869" transform="matrix(0.73864 0.6741 -0.732437 0.680835 64.063 0.214133)" stroke="#00FFDD"/>
<rect x="0.00310153" y="0.677467" width="85.8524" height="85.7869" transform="matrix(0.73864 0.6741 -0.732437 0.680835 64.3444 5.65591)" stroke="#2FA4FF"/>
<rect x="0.00310153" y="0.677467" width="85.8524" height="85.7869" transform="matrix(0.73864 0.6741 -0.732437 0.680835 64.063 10.5794)" stroke="#0E185F"/>
<ellipse cx="72.5869" cy="45.348" rx="4.78286" ry="4.40523" fill="#14C38E"/>
<path fill-rule="evenodd" clip-rule="evenodd" d="M68.6088 54.3847L56.217 50.7329C55.6634 50.5697 55.7833 49.7533 56.3607 49.7533L76.7832 49.7532C77.1775 49.7532 77.3684 50.1487 77.2459 50.4471L82.8983 60.7236C83.075 61.0448 82.8574 61.4406 82.4915 61.4636L71.296 62.1666C71.0636 62.1812 70.8519 62.0335 70.7855 61.8103L68.6283 54.5641C68.6105 54.5045 68.6044 54.4438 68.6088 54.3847Z" fill="#14C38E"/>
<path fill-rule="evenodd" clip-rule="evenodd" d="M67.0903 84.6487C67.0028 85.1904 67.7347 85.4301 68.0197 84.953L75.5552 72.3399L79.8765 85.2753C80.0473 85.7864 80.7928 85.7204 80.8502 85.1891L83.2202 63.2455C83.2514 62.9567 83.028 62.6981 82.7356 62.6844L73.7111 62.2636L71.2021 62.1162C70.9382 62.1007 70.7007 62.2899 70.6589 62.5489L67.0903 84.6487Z" fill="#14C38E"/>
<path d="M53.3148 55.4541C52.5271 57.7345 50.0794 59.6002 48.954 60.2481C46.9846 60.7663 60.4891 62.5802 58.5197 61.4141C56.5503 60.2481 67.6634 54.5472 62.8805 57.0089C58.0977 59.4707 54.2995 52.6037 53.3148 55.4541Z" stroke="#14C38E" stroke-width="0.5" stroke-linecap="round"/>
<path d="M57.113 56.3611C58.2852 56.3179 60.6298 55.9983 60.6298 55.0654C60.6298 53.8993 60.7705 57.5272 61.7552 57.5272" stroke="#14C38E" stroke-width="0.5" stroke-linecap="round"/>
<path d="M46.1406 64.2646L50.3945 86.2908H61.3129L63.8653 64.2646" stroke="#14C38E" stroke-width="0.5" stroke-linecap="round"/>
<line x1="45.7338" y1="63.7828" x2="64.272" y2="63.7828" stroke="#14C38E" stroke-width="2" stroke-linecap="round"/>
<line y1="-0.25" x2="22.1712" y2="-0.25" transform="matrix(0.114207 0.993457 -0.995278 0.097062 50.3607 64.2646)" stroke="#14C38E" stroke-width="0.5"/>
<line y1="-0.25" x2="22.0334" y2="-0.25" transform="matrix(0.0255381 0.999674 -0.999765 0.0216666 54.8622 64.2646)" stroke="#14C38E" stroke-width="0.5"/>
<line y1="-0.25" x2="22.0423" y2="-0.25" transform="matrix(-0.0382915 0.999267 -0.999472 -0.0324903 59.3638 64.2646)" stroke="#14C38E" stroke-width="0.5"/>
<line x1="46.9846" y1="68.1607" x2="63.3026" y2="68.1607" stroke="#14C38E" stroke-width="0.5"/>
<line x1="47.5473" y1="72.0477" x2="62.7399" y2="72.0477" stroke="#14C38E" stroke-width="0.5"/>
<line x1="48.11" y1="75.4164" x2="62.7399" y2="75.4164" stroke="#14C38E" stroke-width="0.5"/>
<line x1="48.6727" y1="78.7851" x2="62.4586" y2="78.7851" stroke="#14C38E" stroke-width="0.5"/>
<line x1="49.798" y1="82.6721" x2="61.6145" y2="82.6721" stroke="#14C38E" stroke-width="0.5"/>
<path d="M77 50.3C78.25 52.046 80 54.5 82.5 61" stroke="#14C38E" stroke-width="0.7" stroke-linecap="round"/>
</svg>
